<svg xmlns="http://www.w3.org/2000/svg" xmlns:xlink="http://www.w3.org/1999/xlink" viewBox="0 0 34 34" enable-background="new 0 0 34 34"><style type="text/css">.st0{clip-path:url(#SVGID_2_);} .st1{fill:#2BB673;}</style><defs><path id="SVGID_1_" d="M0 0h34v34h-34z"/></defs><clipPath id="SVGID_2_"><use xlink:href="#SVGID_1_" overflow="visible"/></clipPath><path class="st1" d="M-8.9-8.9v51.8h51.8v-51.8h-51.8zm36.4 34.4c-.3.7-1 1.2-2 1.7-1.1.5-2 .7-2.8.7-.2 0-.5 0-.7-.1-.3 0-.5-.1-.7-.1-.2 0-.4-.1-.7-.2-.3-.1-.5-.2-.6-.2-.1 0-.4-.1-.7-.3-.4-.1-.6-.2-.6-.2-2.3-.9-4.6-2.4-6.9-4.6-2.3-2.2-3.8-4.5-4.7-6.8 0-.1-.1-.3-.2-.6-.1-.4-.2-.6-.3-.7 0-.1-.1-.4-.2-.6-.1-.3-.2-.5-.2-.7 0-.2-.1-.4-.1-.7v-.7c0-.8.2-1.8.7-2.8s1.1-1.7 1.7-2c.8-.3 1.5-.5 2.2-.5h.4c.1 0 .2.2.4.4s.4.5.5.9c.2.4.4.7.6 1 .2.3.4.7.5 1 .2.3.3.5.3.6 0 .1.1.2.3.4.1.2.2.4.3.5v.4c0 .2-.1.5-.4.8-.3.3-.6.6-1 .9-.4.3-.7.5-1 .8-.3.3-.4.5-.4.7 0 .1 0 .2.1.4l.1.3c0 .1.1.2.2.4l.2.3c.8 1.4 1.7 2.6 2.7 3.6 1 1 2.2 1.9 3.7 2.7 0 0 .1.1.3.2.2.1.3.2.4.2l.3.1.4.1c.2 0 .5-.2.9-.7l1.2-1.4c.4-.5.7-.7 1-.7.1 0 .3 0 .4.1l.5.3c.2.1.4.2.4.3l1.1.6c.7.4 1.4.7 1.9 1.1.5.3.8.5.8.6v.3c.2.7 0 1.5-.3 2.2z"/></svg>